{"title":"North Indian Girl Sucking while She was on a college Trip 1st Ap","uid":7152342,"size":5946271,"categoryP":"porn","categoryS":"other","magnet":"?xt=urn:btih:8fa26dbf76055b9d093de13101bce99d2349ebeb&amp;dn=North+Indian+Girl+Sucking+while+She+was+on+a+college+Trip+1st+Ap&amp;tr=udp%3A%2F%2Ftracker.openbittorrent.com%3A80&amp;tr=udp%3A%2F%2Fopen.demonii.com%3A1337&amp;tr=udp%3A%2F%2Ftracker.coppersurfer.tk%3A6969&amp;tr=udp%3A%2F%2Fexodus.desync.com%3A6969","seeders":0,"leechers":1,"uploader":"Devdeep","files":2,"time":1333348760,"description":"North Indian Girl Sucking while She was on a college Trip 1st April2012{www.mastitoorrents.com}-=MTR=-\n\nFile Info..................\n\n\nFormat                           : MPEG-4\nFormat profile                   : Base Media\nCodec ID                         : isom\nFile size                        : 5.63 MiB\nDuration                         : 2mn 52s\nOverall bit rate                 : 274 Kbps\n\nVideo\nID                               : 1\nFormat                           : MPEG-4 Visual\nFormat profile                   : Simple@L3\nFormat settings, BVOP            : No\nFormat settings, QPel            : No\nFormat settings, GMC             : No warppoints\nFormat settings, Matrix          : Default (H.263)\nCodec ID                         : 20\nDuration                         : 2mn 52s\nBit rate mode                    : Variable\nBit rate                         : 201 Kbps\nWidth                            : 310 pixels\nHeight                           : 212 pixels\nDisplay aspect ratio             : 3:2\nFrame rate mode                  : Constant\nFrame rate                       : 15.000 fps\nColor space                      : YUV\nChroma subsampling               : 4:2:0\nBit depth                        : 8 bits\nScan type                        : Progressive\nCompression mode                 : Lossy\nBits/(Pixel*Frame)               : 0.204\nStream size                      : 4.13 MiB (73%)\n\nAudio\nID                               : 2\nFormat                           : AAC\nFormat/Info                      : Advanced Audio Codec\nFormat profile                   : LC\nCodec ID                         : 40\nDuration                         : 2mn 51s\nBit rate mode                    : Variable\nBit rate                         : 69.4 Kbps\nChannel(s)                       : 2 channels\nChannel positions                : Front: L R\nSampling rate                    : 44.1 KHz\nCompression mode                 : Lossy\nStream size                      : 1.42 MiB (25%)\n\nScreens...........\n &lt;a href=&quot;\nhttp://picturestack.com/337/509/mnGTripgirlFrX.jpg&quot; rel=&quot;nofollow&quot; target=&quot;_NEW&quot;&gt;\nhttp://picturestack.com/337/509/mnGTripgirlFrX.jpg&lt;/a&gt;","torrent":{"xt":"urn:btih:8fa26dbf76055b9d093de13101bce99d2349ebeb","amp;dn":"North+Indian+Girl+Sucking+while+She+was+on+a+college+Trip+1st+Ap","amp;tr":["udp%3A%2F%2Ftracker.openbittorrent.com%3A80","udp%3A%2F%2Fopen.demonii.com%3A1337","udp%3A%2F%2Ftracker.coppersurfer.tk%3A6969","udp%3A%2F%2Fexodus.desync.com%3A6969"],"infoHash":"8fa26dbf76055b9d093de13101bce99d2349ebeb","infoHashBuffer":{"type":"Buffer","data":[143,162,109,191,118,5,91,157,9,61,225,49,1,188,233,157,35,73,235,235]},"announce":[],"urlList":[]}}